<svg xmlns="http://www.w3.org/2000/svg" width="70" height="70" viewBox="0 0 70 70" fill="none">
  <path opacity="0.4" d="M34.9974 64.1614C32.7545 64.1614 30.5145 63.3097 28.8024 61.6093L26.6732 59.4801C25.8478 58.6576 24.7424 58.2026 23.5699 58.1997H20.5745C15.7328 58.1997 11.7924 54.2593 11.7924 49.4176V46.4193C11.7895 45.2497 11.3345 44.1443 10.509 43.3131L8.41488 41.2218C4.98488 37.8122 4.97029 32.2385 8.38279 28.8056L10.512 26.6735C11.3345 25.8481 11.7895 24.7426 11.7924 23.5701V20.5776C11.7924 15.7331 15.7328 11.7926 20.5745 11.7926H23.5728C24.7424 11.7926 25.8449 11.3376 26.6761 10.5064L28.7732 8.41514C32.1828 4.98514 37.7536 4.96764 41.1895 8.38305L43.3186 10.5122C44.147 11.3376 45.2495 11.7926 46.419 11.7926H49.4174C54.259 11.7926 58.1995 15.7331 58.1995 20.5776V23.5731C58.2024 24.7426 58.6574 25.8481 59.4828 26.6793L61.577 28.7735C63.2365 30.4243 64.1553 32.6235 64.164 34.9714C64.1699 37.3047 63.2715 39.501 61.6353 41.1606C61.6061 41.1897 61.5799 41.2218 61.5507 41.2481L59.4799 43.3189C58.6574 44.1443 58.2024 45.2497 58.1995 46.4222V49.4176C58.1995 54.2593 54.259 58.1997 49.4174 58.1997H46.419C45.2495 58.2026 44.144 58.6576 43.3157 59.4831L41.2186 61.5772C39.5095 63.298 37.252 64.1614 34.9974 64.1614Z" fill="#38BCE5"/>
  <path fill-rule="evenodd" clip-rule="evenodd" d="M29.2915 29.3151C28.8102 29.7964 28.1861 30.0559 27.4948 30.0559C26.8473 30.0559 26.2115 29.7905 25.7011 29.3122C25.2169 28.8309 24.9427 28.1718 24.9427 27.5039C24.9427 26.868 25.2111 26.2147 25.6836 25.7101C25.9432 25.4476 26.2523 25.2493 26.5615 25.1443C27.4423 24.7418 28.6119 24.978 29.3061 25.7072C29.554 25.9551 29.7436 26.2264 29.869 26.5093C30.0061 26.8126 30.0761 27.1568 30.0761 27.5039C30.0761 28.198 29.799 28.8426 29.2915 29.3151ZM44.3056 25.6952C43.311 24.7036 41.6923 24.7036 40.6977 25.6952L25.706 40.6869C24.7115 41.6815 24.7115 43.3002 25.706 44.2977C26.1902 44.779 26.829 45.0444 27.5115 45.0444C28.194 45.0444 28.8327 44.779 29.314 44.2977L44.3056 29.3061C45.3002 28.3086 45.3002 26.6927 44.3056 25.6952ZM43.4752 40.1447C42.5302 39.748 41.4102 39.9639 40.6636 40.7105C40.509 40.8913 40.2902 41.1714 40.1415 41.5009C39.984 41.8568 39.9636 42.2388 39.9636 42.4955C39.9636 42.7522 39.984 43.1313 40.1415 43.4872C40.2873 43.8139 40.4623 44.0793 40.6927 44.3097C41.2207 44.7997 41.8332 45.0476 42.5157 45.0476C43.1632 45.0476 43.799 44.7851 44.3211 44.298C44.7848 43.8343 45.0386 43.1926 45.0386 42.4955C45.0386 41.7955 44.7848 41.1568 44.3182 40.6901C44.0615 40.4363 43.7523 40.238 43.4752 40.1447Z" fill="#38BCE5"/>
</svg>