<svg xmlns="http://www.w3.org/2000/svg" width="48" height="60" viewBox="0 0 48 60" fill="none">
  <path opacity="0.4"
    d="M23.9743 49.3127L5.04005 58.7702C3.61018 59.5464 1.82656 59.0281 1.02682 57.6042C0.793252 57.1565 0.669741 56.6589 0.666656 56.1532V34.9839C0.666656 37.0827 1.85004 38.3782 4.96287 39.8292L23.9743 49.3127Z"
    fill="#38BCE5" />
  <path fill-rule="evenodd" clip-rule="evenodd"
    d="M14.9445 0.833252H32.9526C40.8504 0.833252 47.2561 3.94257 47.3333 11.8972V56.1532C47.3302 56.6507 47.2065 57.1399 46.9732 57.5783C46.5982 58.2935 45.9506 58.8244 45.1793 59.0492C44.4079 59.274 43.5789 59.1733 42.8828 58.7702L23.9743 49.3127L4.96287 39.8293C1.85004 38.3783 0.666656 37.0827 0.666656 34.9839V11.8972C0.666656 3.94257 7.07239 0.833252 14.9445 0.833252ZM12.9893 23.0649H34.9335C36.198 23.0649 37.2231 22.0324 37.2231 20.7588C37.2231 19.4852 36.198 18.4527 34.9335 18.4527H12.9893C11.7248 18.4527 10.6997 19.4852 10.6997 20.7588C10.6997 22.0324 11.7248 23.0649 12.9893 23.0649Z"
    fill="#38BCE5" />
</svg>