<svg width="54" height="55" viewBox="0 0 54 55" fill="none" xmlns="http://www.w3.org/2000/svg">
<g filter="url(#filter0_d_0_1524)">
<rect x="4" y="0.5" width="46" height="46" rx="6" fill="#111111" shape-rendering="crispEdges"/>
<path fill-rule="evenodd" clip-rule="evenodd" d="M35.8973 19.4524L36.7258 20.2806C37.3817 20.9247 37.7384 21.7989 37.7384 22.7191C37.7499 23.6393 37.3932 24.5147 36.7488 25.1692C36.7411 25.1776 36.7334 25.185 36.7258 25.1924C36.7219 25.1962 36.7181 25.1999 36.7143 25.2037L35.8973 26.0204C35.5751 26.3425 35.391 26.7796 35.391 27.2408V28.4244C35.391 30.3339 33.8376 31.8879 31.9274 31.8879H30.7422C30.282 31.8879 29.8447 32.0708 29.5225 32.3929L28.694 33.221C28.0151 33.9008 27.1291 34.2333 26.2431 34.2333C25.357 34.2333 24.471 33.9009 23.7921 33.2337L22.9521 32.3929C22.6299 32.0708 22.1927 31.8879 21.7324 31.8879H20.5472C18.637 31.8879 17.0836 30.3339 17.0836 28.4244V27.2408C17.0836 26.7796 16.8995 26.3425 16.5773 26.0089L15.7488 25.1922C14.4025 23.8475 14.391 21.6494 15.7373 20.2932L16.5773 19.4524C16.8995 19.1303 17.0836 18.6932 17.0836 18.2216V17.0483C17.0836 15.1389 18.637 13.5872 20.5472 13.5872H21.7324C22.1927 13.5872 22.6299 13.402 22.9521 13.0799L23.7806 12.2517C25.1269 10.8955 27.3247 10.8955 28.6825 12.2413L29.5225 13.0799C29.8447 13.402 30.282 13.5872 30.7422 13.5872H31.9274C33.8376 13.5872 35.391 15.1389 35.391 17.0483V18.2342C35.391 18.6932 35.5751 19.1303 35.8973 19.4524ZM24.2869 19.7744C24.2869 19.2223 23.8381 18.7737 23.2858 18.7737C22.7335 18.7737 22.2732 19.2223 22.2732 19.7744C22.2732 20.3392 22.7335 20.7867 23.2858 20.7867C23.8381 20.7867 24.2869 20.3392 24.2869 19.7744Z" fill="white"/>
<path d="M22.5001 23.0455L24.0621 24.7229C24.4546 25.1443 25.1209 25.1481 25.5181 24.7311L30.5001 19.5" stroke="#111111" stroke-width="2" stroke-linecap="round"/>
<rect x="21.5" y="17.5" width="4" height="5" fill="white"/>
</g>
<defs>
<filter id="filter0_d_0_1524" x="0" y="0.5" width="54" height="54" filterUnits="userSpaceOnUse" color-interpolation-filters="sRGB">
<feFlood flood-opacity="0" result="BackgroundImageFix"/>
<feColorMatrix in="SourceAlpha" type="matrix" values="0 0 0 0 0 0 0 0 0 0 0 0 0 0 0 0 0 0 127 0" result="hardAlpha"/>
<feOffset dy="4"/>
<feGaussianBlur stdDeviation="2"/>
<feComposite in2="hardAlpha" operator="out"/>
<feColorMatrix type="matrix" values="0 0 0 0 0 0 0 0 0 0 0 0 0 0 0 0 0 0 0.25 0"/>
<feBlend mode="normal" in2="BackgroundImageFix" result="effect1_dropShadow_0_1524"/>
<feBlend mode="normal" in="SourceGraphic" in2="effect1_dropShadow_0_1524" result="shape"/>
</filter>
</defs>
</svg>
