<svg xmlns="http://www.w3.org/2000/svg" width="60" height="56" viewBox="0 0 60 56" fill="none">
  <path opacity="0.4" d="M46.1992 14.2805C53.3479 14.2805 59.1667 20.2883 59.1667 27.6722L59.1667 42.3497C59.1667 49.7156 53.3625 55.7083 46.2284 55.7083L13.8067 55.7083C6.65502 55.7083 0.833359 49.7036 0.833359 42.3196L0.833359 27.6421C0.833359 20.2762 6.64044 14.2805 13.7775 14.2805L16.5192 14.2805L46.1992 14.2805Z" fill="#38BCE5"/>
  <path d="M31.5931 39.7758L40.0777 31.1194C40.9527 30.2247 40.9527 28.785 40.0719 27.8933C39.191 27.0045 37.7706 27.0075 36.8956 27.8992L32.2494 32.6392L32.2494 2.57287C32.2494 1.31381 31.2431 0.291748 30.0006 0.291748C28.761 0.291748 27.7577 1.31381 27.7577 2.57287L27.7577 32.6392L23.1085 27.8992C22.2335 27.0075 20.8131 27.0045 19.9323 27.8933C19.4919 28.3406 19.2702 28.9242 19.2702 29.5108C19.2702 30.0914 19.4919 30.675 19.9264 31.1194L28.411 39.7758C28.8339 40.2054 29.4056 40.4483 30.0006 40.4483C30.5985 40.4483 31.1702 40.2054 31.5931 39.7758Z" fill="#38BCE5"/>
</svg>