<svg width="54" height="55" viewBox="0 0 54 55" fill="none" xmlns="http://www.w3.org/2000/svg">
<g filter="url(#filter0_d_0_1512)">
<rect x="4" y="0.5" width="46" height="46" rx="6" fill="#111111" shape-rendering="crispEdges"/>
<path fill-rule="evenodd" clip-rule="evenodd" d="M23.6726 28.3418H29.5023C29.9416 28.3418 30.306 27.9738 30.306 27.53C30.306 27.0863 29.9416 26.7291 29.5023 26.7291H23.6726C23.2332 26.7291 22.8688 27.0863 22.8688 27.53C22.8688 27.9738 23.2332 28.3418 23.6726 28.3418ZM27.2947 21.3173H23.6726C23.2332 21.3173 22.8688 21.6853 22.8688 22.1291C22.8688 22.5728 23.2332 22.93 23.6726 22.93H27.2947C27.7341 22.93 28.0984 22.5728 28.0984 22.1291C28.0984 21.6853 27.7341 21.3173 27.2947 21.3173ZM34.9424 20.3709C35.1943 20.368 35.4685 20.3648 35.7177 20.3648C35.9857 20.3648 36.2 20.5813 36.2 20.8519V29.554C36.2 32.2383 34.046 34.4138 31.3883 34.4138H22.8581C20.0719 34.4138 17.8 32.13 17.8 29.3159V17.6481C17.8 14.9639 19.9647 12.7667 22.6331 12.7667H28.3556C28.6342 12.7667 28.8486 12.994 28.8486 13.2646V16.7498C28.8486 18.7305 30.4667 20.354 32.4278 20.3648C32.8859 20.3648 33.2897 20.3683 33.6431 20.3713C33.9181 20.3736 34.1625 20.3757 34.3782 20.3757C34.5308 20.3757 34.7285 20.3734 34.9424 20.3709ZM35.2379 18.7911C34.357 18.7944 33.3186 18.7911 32.5716 18.7835C31.3864 18.7835 30.4101 17.7975 30.4101 16.6004V13.7473C30.4101 13.2809 30.9706 13.0492 31.291 13.3858C31.8704 13.9943 32.6663 14.8304 33.4588 15.6629C34.251 16.495 35.0397 17.3236 35.6054 17.9177C35.9184 18.2456 35.689 18.79 35.2379 18.7911Z" fill="white"/>
</g>
<defs>
<filter id="filter0_d_0_1512" x="0" y="0.5" width="54" height="54" filterUnits="userSpaceOnUse" color-interpolation-filters="sRGB">
<feFlood flood-opacity="0" result="BackgroundImageFix"/>
<feColorMatrix in="SourceAlpha" type="matrix" values="0 0 0 0 0 0 0 0 0 0 0 0 0 0 0 0 0 0 127 0" result="hardAlpha"/>
<feOffset dy="4"/>
<feGaussianBlur stdDeviation="2"/>
<feComposite in2="hardAlpha" operator="out"/>
<feColorMatrix type="matrix" values="0 0 0 0 0 0 0 0 0 0 0 0 0 0 0 0 0 0 0.25 0"/>
<feBlend mode="normal" in2="BackgroundImageFix" result="effect1_dropShadow_0_1512"/>
<feBlend mode="normal" in="SourceGraphic" in2="effect1_dropShadow_0_1512" result="shape"/>
</filter>
</defs>
</svg>
